# xmcd
#
# Track frame offsets:
#	150
#	19818
#	48372
#	65994
#	95784
#	115490
#	135881
#	161894
#	180675
#	197567
#
# Disc length: 2899 seconds
# Revision: 0
# Processed by: cddbd v1.5.2PL0 Copyright (c) Steve Scherf et al.
# Submitted via: dBpowerAMP V12.0
#
DISCID=900b510a
DTITLE=Scott Ramminger - Advice From a Father To a Son
DYEAR=2012
DGENRE=Blues
TTITLE0=I Really Love Your Smile
TTITLE1=Funkier Than Him
TTITLE2=This Town's Seen the Last of Me
TTITLE3=The Other Man's Shoes
TTITLE4=Advice From a Father To a Son
TTITLE5=I've Got a Funny Feeling
TTITLE6=Magic In the Music
TTITLE7=More Tha One Flavor
TTITLE8=Must Be True
TTITLE9=Sometimes You Race the Devil
EXTD=
EXTT0=
EXTT1=
EXTT2=
EXTT3=
EXTT4=
EXTT5=
EXTT6=
EXTT7=
EXTT8=
EXTT9=
PLAYORDER=
